STARTFONT 2.1
FONT -FontForge-Pictochat-Book-R-Normal--16-150-75-75-P-53-ISO10646-1
SIZE 15 75 75
FONTBOUNDINGBOX 12 13 0 -1
COMMENT "Generated by fontforge, http://fontforge.sourceforge.net"
STARTPROPERTIES 37
FAMILY_NAME "Pictochat"
WEIGHT_NAME "Book"
SLANT "R"
SETWIDTH_NAME "Normal"
ADD_STYLE_NAME ""
PIXEL_SIZE 16
POINT_SIZE 150
RESOLUTION_X 75
RESOLUTION_Y 75
SPACING "P"
AVERAGE_WIDTH 53
CHARSET_REGISTRY "ISO10646"
CHARSET_ENCODING "1"
FONTNAME_REGISTRY ""
CHARSET_COLLECTIONS "ISO10646-1"
FONT_NAME "Pictochat"
FACE_NAME "Pictochat Regular"
FONT_VERSION "1.0"
FONT_ASCENT 13
FONT_DESCENT 3
UNDERLINE_POSITION 2
UNDERLINE_THICKNESS 1
X_HEIGHT 5
CAP_HEIGHT 8
RAW_ASCENT 799
RAW_DESCENT 200
NORM_SPACE 2
RELATIVE_WEIGHT 40
RELATIVE_SETWIDTH 50
SUPERSCRIPT_X 0
SUPERSCRIPT_Y 8
SUPERSCRIPT_SIZE 8
SUBSCRIPT_X 0
SUBSCRIPT_Y 0
SUBSCRIPT_SIZE 8
AVG_LOWERCASE_WIDTH 55
AVG_UPPERCASE_WIDTH 56
ENDPROPERTIES
CHARS 359
STARTCHAR space
ENCODING 32
SWIDTH 187 0
DWIDTH 3 0
BBX 1 1 0 0
BITMAP
00
ENDCHAR
STARTCHAR exclam
ENCODING 33
SWIDTH 125 0
DWIDTH 2 0
BBX 1 9 0 0
BITMAP
80
80
80
80
80
80
00
80
80
ENDCHAR
STARTCHAR quotedbl
ENCODING 34
SWIDTH 375 0
DWIDTH 6 0
BBX 5 3 0 6
BITMAP
28
50
A0
ENDCHAR
STARTCHAR numbersign
ENCODING 35
SWIDTH 500 0
DWIDTH 8 0
BBX 7 9 0 0
BITMAP
14
14
7E
28
28
28
FC
50
50
ENDCHAR
STARTCHAR dollar
ENCODING 36
SWIDTH 375 0
DWIDTH 6 0
BBX 5 9 0 0
BITMAP
20
70
A8
A0
70
28
A8
70
20
ENDCHAR
STARTCHAR percent
ENCODING 37
SWIDTH 500 0
DWIDTH 8 0
BBX 7 9 0 0
BITMAP
44
A4
A8
48
10
24
2A
4A
44
ENDCHAR
STARTCHAR ampersand
ENCODING 38
SWIDTH 437 0
DWIDTH 7 0
BBX 6 9 0 0
BITMAP
20
50
50
50
20
54
88
88
74
ENDCHAR
STARTCHAR quotesingle
ENCODING 39
SWIDTH 187 0
DWIDTH 3 0
BBX 1 2 1 7
BITMAP
80
80
ENDCHAR
STARTCHAR parenleft
ENCODING 40
SWIDTH 250 0
DWIDTH 4 0
BBX 3 9 0 0
BITMAP
20
40
40
80
80
80
40
40
20
ENDCHAR
STARTCHAR parenright
ENCODING 41
SWIDTH 250 0
DWIDTH 4 0
BBX 3 9 0 0
BITMAP
80
40
40
20
20
20
40
40
80
ENDCHAR
STARTCHAR asterisk
ENCODING 42
SWIDTH 500 0
DWIDTH 8 0
BBX 7 7 0 1
BITMAP
10
92
54
38
54
92
10
ENDCHAR
STARTCHAR plus
ENCODING 43
SWIDTH 375 0
DWIDTH 6 0
BBX 5 5 0 2
BITMAP
20
20
F8
20
20
ENDCHAR
STARTCHAR comma
ENCODING 44
SWIDTH 312 0
DWIDTH 5 0
BBX 2 2 0 -1
BITMAP
40
80
ENDCHAR
STARTCHAR hyphen
ENCODING 45
SWIDTH 375 0
DWIDTH 6 0
BBX 5 1 0 4
BITMAP
F8
ENDCHAR
STARTCHAR period
ENCODING 46
SWIDTH 250 0
DWIDTH 4 0
BBX 1 1 0 0
BITMAP
80
ENDCHAR
STARTCHAR slash
ENCODING 47
SWIDTH 250 0
DWIDTH 4 0
BBX 3 9 0 0
BITMAP
20
20
20
40
40
40
80
80
80
ENDCHAR
STARTCHAR zero
ENCODING 48
SWIDTH 375 0
DWIDTH 6 0
BBX 5 9 0 0
BITMAP
70
88
98
98
A8
C8
C8
88
70
ENDCHAR
STARTCHAR one
ENCODING 49
SWIDTH 187 0
DWIDTH 3 0
BBX 2 9 0 0
BITMAP
C0
40
40
40
40
40
40
40
40
ENDCHAR
STARTCHAR two
ENCODING 50
SWIDTH 375 0
DWIDTH 6 0
BBX 5 9 0 0
BITMAP
F0
08
08
08
70
80
80
80
F8
ENDCHAR
STARTCHAR three
ENCODING 51
SWIDTH 375 0
DWIDTH 6 0
BBX 5 9 0 0
BITMAP
F0
08
08
08
70
08
08
08
F0
ENDCHAR
STARTCHAR four
ENCODING 52
SWIDTH 437 0
DWIDTH 7 0
BBX 6 9 0 0
BITMAP
88
88
88
88
88
7C
08
08
08
ENDCHAR
STARTCHAR five
ENCODING 53
SWIDTH 375 0
DWIDTH 6 0
BBX 5 9 0 0
BITMAP
F8
80
80
80
F0
08
08
08
F0
ENDCHAR
STARTCHAR six
ENCODING 54
SWIDTH 375 0
DWIDTH 6 0
BBX 5 9 0 0
BITMAP
70
80
80
80
F0
88
88
88
70
ENDCHAR
STARTCHAR seven
ENCODING 55
SWIDTH 375 0
DWIDTH 6 0
BBX 5 9 0 0
BITMAP
F8
08
08
10
20
20
20
20
20
ENDCHAR
STARTCHAR eight
ENCODING 56
SWIDTH 375 0
DWIDTH 6 0
BBX 5 9 0 0
BITMAP
70
88
88
88
70
88
88
88
70
ENDCHAR
STARTCHAR nine
ENCODING 57
SWIDTH 375 0
DWIDTH 6 0
BBX 5 9 0 0
BITMAP
70
88
88
88
78
08
08
08
70
ENDCHAR
STARTCHAR colon
ENCODING 58
SWIDTH 125 0
DWIDTH 2 0
BBX 1 5 0 2
BITMAP
80
00
00
00
80
ENDCHAR
STARTCHAR semicolon
ENCODING 59
SWIDTH 187 0
DWIDTH 3 0
BBX 2 6 0 1
BITMAP
40
00
00
00
40
80
ENDCHAR
STARTCHAR less
ENCODING 60
SWIDTH 250 0
DWIDTH 4 0
BBX 3 5 0 2
BITMAP
20
40
80
40
20
ENDCHAR
STARTCHAR equal
ENCODING 61
SWIDTH 375 0
DWIDTH 6 0
BBX 5 3 0 3
BITMAP
F8
00
F8
ENDCHAR
STARTCHAR greater
ENCODING 62
SWIDTH 250 0
DWIDTH 4 0
BBX 3 5 0 2
BITMAP
80
40
20
40
80
ENDCHAR
STARTCHAR question
ENCODING 63
SWIDTH 312 0
DWIDTH 5 0
BBX 4 9 0 0
BITMAP
E0
10
10
20
40
40
00
40
40
ENDCHAR
STARTCHAR at
ENCODING 64
SWIDTH 500 0
DWIDTH 8 0
BBX 7 9 0 0
BITMAP
38
44
9A
AA
AA
AA
9C
40
3C
ENDCHAR
STARTCHAR A
ENCODING 65
SWIDTH 375 0
DWIDTH 6 0
BBX 5 9 0 0
BITMAP
20
20
50
50
50
F8
88
88
88
ENDCHAR
STARTCHAR B
ENCODING 66
SWIDTH 375 0
DWIDTH 6 0
BBX 5 9 0 0
BITMAP
F0
88
88
88
F0
88
88
88
F0
ENDCHAR
STARTCHAR C
ENCODING 67
SWIDTH 375 0
DWIDTH 6 0
BBX 5 9 0 0
BITMAP
78
80
80
80
80
80
80
80
78
ENDCHAR
STARTCHAR D
ENCODING 68
SWIDTH 375 0
DWIDTH 6 0
BBX 5 9 0 0
BITMAP
F0
88
88
88
88
88
88
88
F0
ENDCHAR
STARTCHAR E
ENCODING 69
SWIDTH 312 0
DWIDTH 5 0
BBX 4 9 0 0
BITMAP
F0
80
80
80
F0
80
80
80
F0
ENDCHAR
STARTCHAR F
ENCODING 70
SWIDTH 312 0
DWIDTH 5 0
BBX 4 9 0 0
BITMAP
F0
80
80
80
F0
80
80
80
80
ENDCHAR
STARTCHAR G
ENCODING 71
SWIDTH 375 0
DWIDTH 6 0
BBX 5 9 0 0
BITMAP
78
80
80
80
B8
88
88
88
70
ENDCHAR
STARTCHAR H
ENCODING 72
SWIDTH 375 0
DWIDTH 6 0
BBX 5 9 0 0
BITMAP
88
88
88
88
F8
88
88
88
88
ENDCHAR
STARTCHAR I
ENCODING 73
SWIDTH 125 0
DWIDTH 2 0
BBX 1 9 0 0
BITMAP
80
80
80
80
80
80
80
80
80
ENDCHAR
STARTCHAR J
ENCODING 74
SWIDTH 312 0
DWIDTH 5 0
BBX 4 9 0 0
BITMAP
10
10
10
10
10
10
10
10
E0
ENDCHAR
STARTCHAR K
ENCODING 75
SWIDTH 375 0
DWIDTH 6 0
BBX 5 9 0 0
BITMAP
88
90
90
A0
C0
A0
90
90
88
ENDCHAR
STARTCHAR L
ENCODING 76
SWIDTH 312 0
DWIDTH 5 0
BBX 4 9 0 0
BITMAP
80
80
80
80
80
80
80
80
F0
ENDCHAR
STARTCHAR M
ENCODING 77
SWIDTH 375 0
DWIDTH 6 0
BBX 5 9 0 0
BITMAP
88
88
D8
D8
A8
A8
88
88
88
ENDCHAR
STARTCHAR N
ENCODING 78
SWIDTH 375 0
DWIDTH 6 0
BBX 5 9 0 0
BITMAP
88
C8
C8
A8
A8
98
98
88
88
ENDCHAR
STARTCHAR O
ENCODING 79
SWIDTH 375 0
DWIDTH 6 0
BBX 5 9 0 0
BITMAP
70
88
88
88
88
88
88
88
70
ENDCHAR
STARTCHAR P
ENCODING 80
SWIDTH 375 0
DWIDTH 6 0
BBX 5 9 0 0
BITMAP
F0
88
88
88
F0
80
80
80
80
ENDCHAR
STARTCHAR Q
ENCODING 81
SWIDTH 375 0
DWIDTH 6 0
BBX 5 10 0 -1
BITMAP
70
88
88
88
88
88
88
A8
70
18
ENDCHAR
STARTCHAR R
ENCODING 82
SWIDTH 375 0
DWIDTH 6 0
BBX 5 9 0 0
BITMAP
F0
88
88
88
F0
90
90
88
88
ENDCHAR
STARTCHAR S
ENCODING 83
SWIDTH 312 0
DWIDTH 5 0
BBX 4 9 0 0
BITMAP
70
80
80
80
60
10
10
10
E0
ENDCHAR
STARTCHAR T
ENCODING 84
SWIDTH 375 0
DWIDTH 6 0
BBX 5 9 0 0
BITMAP
F8
20
20
20
20
20
20
20
20
ENDCHAR
STARTCHAR U
ENCODING 85
SWIDTH 375 0
DWIDTH 6 0
BBX 5 9 0 0
BITMAP
88
88
88
88
88
88
88
88
70
ENDCHAR
STARTCHAR V
ENCODING 86
SWIDTH 375 0
DWIDTH 6 0
BBX 5 9 0 0
BITMAP
88
88
88
50
50
50
50
20
20
ENDCHAR
STARTCHAR W
ENCODING 87
SWIDTH 375 0
DWIDTH 6 0
BBX 5 9 0 0
BITMAP
88
88
A8
A8
A8
A8
50
50
50
ENDCHAR
STARTCHAR X
ENCODING 88
SWIDTH 375 0
DWIDTH 6 0
BBX 5 9 0 0
BITMAP
88
88
50
50
20
50
50
88
88
ENDCHAR
STARTCHAR Y
ENCODING 89
SWIDTH 375 0
DWIDTH 6 0
BBX 5 9 0 0
BITMAP
88
88
50
50
20
20
20
20
20
ENDCHAR
STARTCHAR Z
ENCODING 90
SWIDTH 312 0
DWIDTH 5 0
BBX 4 9 0 0
BITMAP
F0
10
20
20
60
40
40
80
F0
ENDCHAR
STARTCHAR bracketleft
ENCODING 91
SWIDTH 250 0
DWIDTH 4 0
BBX 3 9 0 0
BITMAP
E0
80
80
80
80
80
80
80
E0
ENDCHAR
STARTCHAR backslash
ENCODING 92
SWIDTH 250 0
DWIDTH 4 0
BBX 3 9 0 0
BITMAP
80
80
80
40
40
40
20
20
20
ENDCHAR
STARTCHAR bracketright
ENCODING 93
SWIDTH 250 0
DWIDTH 4 0
BBX 3 9 0 0
BITMAP
E0
20
20
20
20
20
20
20
E0
ENDCHAR
STARTCHAR asciicircum
ENCODING 94
SWIDTH 250 0
DWIDTH 4 0
BBX 3 2 0 7
BITMAP
40
A0
ENDCHAR
STARTCHAR underscore
ENCODING 95
SWIDTH 375 0
DWIDTH 6 0
BBX 5 1 0 0
BITMAP
F8
ENDCHAR
STARTCHAR grave
ENCODING 96
SWIDTH 187 0
DWIDTH 3 0
BBX 2 2 0 7
BITMAP
80
40
ENDCHAR
STARTCHAR a
ENCODING 97
SWIDTH 375 0
DWIDTH 6 0
BBX 5 6 0 0
BITMAP
F0
08
78
88
88
78
ENDCHAR
STARTCHAR b
ENCODING 98
SWIDTH 375 0
DWIDTH 6 0
BBX 5 9 0 0
BITMAP
80
80
80
F0
88
88
88
88
F0
ENDCHAR
STARTCHAR c
ENCODING 99
SWIDTH 375 0
DWIDTH 6 0
BBX 5 6 0 0
BITMAP
78
80
80
80
80
78
ENDCHAR
STARTCHAR d
ENCODING 100
SWIDTH 375 0
DWIDTH 6 0
BBX 5 9 0 0
BITMAP
08
08
08
78
88
88
88
88
78
ENDCHAR
STARTCHAR e
ENCODING 101
SWIDTH 375 0
DWIDTH 6 0
BBX 5 6 0 0
BITMAP
70
88
F8
80
80
78
ENDCHAR
STARTCHAR f
ENCODING 102
SWIDTH 312 0
DWIDTH 5 0
BBX 4 9 0 0
BITMAP
30
40
40
F0
40
40
40
40
40
ENDCHAR
STARTCHAR g
ENCODING 103
SWIDTH 375 0
DWIDTH 6 0
BBX 5 7 0 -1
BITMAP
78
88
88
88
78
08
F0
ENDCHAR
STARTCHAR h
ENCODING 104
SWIDTH 375 0
DWIDTH 6 0
BBX 5 9 0 0
BITMAP
80
80
80
F0
88
88
88
88
88
ENDCHAR
STARTCHAR i
ENCODING 105
SWIDTH 125 0
DWIDTH 2 0
BBX 1 8 0 0
BITMAP
80
00
80
80
80
80
80
80
ENDCHAR
STARTCHAR j
ENCODING 106
SWIDTH 250 0
DWIDTH 4 0
BBX 3 9 0 -1
BITMAP
20
00
20
20
20
20
20
20
C0
ENDCHAR
STARTCHAR k
ENCODING 107
SWIDTH 312 0
DWIDTH 5 0
BBX 4 9 0 0
BITMAP
80
80
80
90
A0
C0
A0
90
90
ENDCHAR
STARTCHAR l
ENCODING 108
SWIDTH 187 0
DWIDTH 3 0
BBX 2 9 0 0
BITMAP
80
80
80
80
80
80
80
80
40
ENDCHAR
STARTCHAR m
ENCODING 109
SWIDTH 500 0
DWIDTH 8 0
BBX 7 6 0 0
BITMAP
FC
92
92
92
92
92
ENDCHAR
STARTCHAR n
ENCODING 110
SWIDTH 375 0
DWIDTH 6 0
BBX 5 6 0 0
BITMAP
F0
88
88
88
88
88
ENDCHAR
STARTCHAR o
ENCODING 111
SWIDTH 375 0
DWIDTH 6 0
BBX 5 6 0 0
BITMAP
70
88
88
88
88
70
ENDCHAR
STARTCHAR p
ENCODING 112
SWIDTH 375 0
DWIDTH 6 0
BBX 5 7 0 -1
BITMAP
F0
88
88
88
F0
80
80
ENDCHAR
STARTCHAR q
ENCODING 113
SWIDTH 375 0
DWIDTH 6 0
BBX 5 7 0 -1
BITMAP
78
88
88
88
78
08
08
ENDCHAR
STARTCHAR r
ENCODING 114
SWIDTH 312 0
DWIDTH 5 0
BBX 4 6 0 0
BITMAP
B0
C0
80
80
80
80
ENDCHAR
STARTCHAR s
ENCODING 115
SWIDTH 312 0
DWIDTH 5 0
BBX 4 6 0 0
BITMAP
70
80
60
10
10
E0
ENDCHAR
STARTCHAR t
ENCODING 116
SWIDTH 312 0
DWIDTH 5 0
BBX 4 8 0 0
BITMAP
40
40
F0
40
40
40
40
30
ENDCHAR
STARTCHAR u
ENCODING 117
SWIDTH 375 0
DWIDTH 6 0
BBX 5 6 0 0
BITMAP
88
88
88
88
88
78
ENDCHAR
STARTCHAR v
ENCODING 118
SWIDTH 375 0
DWIDTH 6 0
BBX 5 6 0 0
BITMAP
88
88
50
50
20
20
ENDCHAR
STARTCHAR w
ENCODING 119
SWIDTH 375 0
DWIDTH 6 0
BBX 5 6 0 0
BITMAP
88
A8
A8
A8
50
50
ENDCHAR
STARTCHAR x
ENCODING 120
SWIDTH 375 0
DWIDTH 6 0
BBX 5 6 0 0
BITMAP
88
50
20
20
50
88
ENDCHAR
STARTCHAR y
ENCODING 121
SWIDTH 375 0
DWIDTH 6 0
BBX 5 7 0 -1
BITMAP
88
88
50
50
20
20
C0
ENDCHAR
STARTCHAR z
ENCODING 122
SWIDTH 375 0
DWIDTH 6 0
BBX 5 6 0 0
BITMAP
F8
10
20
40
80
F8
ENDCHAR
STARTCHAR braceleft
ENCODING 123
SWIDTH 312 0
DWIDTH 5 0
BBX 4 9 0 0
BITMAP
30
40
40
40
80
40
40
40
30
ENDCHAR
STARTCHAR bar
ENCODING 124
SWIDTH 187 0
DWIDTH 3 0
BBX 1 9 1 0
BITMAP
80
80
80
80
80
80
80
80
80
ENDCHAR
STARTCHAR braceright
ENCODING 125
SWIDTH 312 0
DWIDTH 5 0
BBX 4 9 0 0
BITMAP
C0
20
20
20
10
20
20
20
C0
ENDCHAR
STARTCHAR asciitilde
ENCODING 126
SWIDTH 625 0
DWIDTH 10 0
BBX 9 2 0 4
BITMAP
7880
8700
ENDCHAR
STARTCHAR exclamdown
ENCODING 161
SWIDTH 125 0
DWIDTH 2 0
BBX 1 9 0 0
BITMAP
80
80
00
80
80
80
80
80
80
ENDCHAR
STARTCHAR cent
ENCODING 162
SWIDTH 437 0
DWIDTH 7 0
BBX 6 9 0 0
BITMAP
10
78
94
A0
A0
A0
C4
78
40
ENDCHAR
STARTCHAR sterling
ENCODING 163
SWIDTH 375 0
DWIDTH 6 0
BBX 5 9 0 0
BITMAP
30
48
40
20
F8
20
40
80
F8
ENDCHAR
STARTCHAR yen
ENCODING 165
SWIDTH 375 0
DWIDTH 6 0
BBX 5 9 0 0
BITMAP
88
88
50
50
F8
20
F8
20
20
ENDCHAR
STARTCHAR brokenbar
ENCODING 166
SWIDTH 125 0
DWIDTH 2 0
BBX 1 9 0 0
BITMAP
80
80
80
80
00
80
80
80
80
ENDCHAR
STARTCHAR copyright
ENCODING 169
SWIDTH 625 0
DWIDTH 10 0
BBX 9 9 0 0
BITMAP
3E00
4100
9C80
A280
A080
A280
9C80
4100
3E00
ENDCHAR
STARTCHAR registered
ENCODING 174
SWIDTH 625 0
DWIDTH 10 0
BBX 9 9 0 0
BITMAP
3E00
4100
BC80
A280
BC80
A480
A280
4100
3E00
ENDCHAR
STARTCHAR degree
ENCODING 176
SWIDTH 250 0
DWIDTH 4 0
BBX 3 3 0 6
BITMAP
40
A0
40
ENDCHAR
STARTCHAR plusminus
ENCODING 177
SWIDTH 375 0
DWIDTH 6 0
BBX 5 7 0 1
BITMAP
20
20
F8
20
20
00
F8
ENDCHAR
STARTCHAR acute
ENCODING 180
SWIDTH 187 0
DWIDTH 3 0
BBX 2 2 0 7
BITMAP
40
80
ENDCHAR
STARTCHAR periodcentered
ENCODING 183
SWIDTH 250 0
DWIDTH 4 0
BBX 2 2 1 3
BITMAP
C0
C0
ENDCHAR
STARTCHAR questiondown
ENCODING 191
SWIDTH 312 0
DWIDTH 5 0
BBX 4 9 0 0
BITMAP
20
20
00
20
20
40
80
80
70
ENDCHAR
STARTCHAR Agrave
ENCODING 192
SWIDTH 1000 0
DWIDTH 6 0
BBX 5 11 0 0
BITMAP
20
10
00
20
50
50
50
F8
88
88
88
ENDCHAR
STARTCHAR Aacute
ENCODING 193
SWIDTH 1000 0
DWIDTH 6 0
BBX 5 11 0 0
BITMAP
20
40
00
20
50
50
50
F8
88
88
88
ENDCHAR
STARTCHAR Acircumflex
ENCODING 194
SWIDTH 1000 0
DWIDTH 6 0
BBX 5 12 0 0
BITMAP
20
50
00
20
20
50
50
50
F8
88
88
88
ENDCHAR
STARTCHAR Atilde
ENCODING 195
SWIDTH 1000 0
DWIDTH 6 0
BBX 5 11 0 0
BITMAP
28
50
00
20
50
50
50
F8
88
88
88
ENDCHAR
STARTCHAR Adieresis
ENCODING 196
SWIDTH 1000 0
DWIDTH 6 0
BBX 5 11 0 0
BITMAP
50
00
20
20
50
50
50
F8
88
88
88
ENDCHAR
STARTCHAR Aring
ENCODING 197
SWIDTH 1000 0
DWIDTH 6 0
BBX 5 12 0 0
BITMAP
20
50
20
00
20
50
50
50
F8
88
88
88
ENDCHAR
STARTCHAR Ccedilla
ENCODING 199
SWIDTH 312 0
DWIDTH 5 0
BBX 4 10 0 -1
BITMAP
70
80
80
80
80
80
80
70
20
40
ENDCHAR
STARTCHAR Egrave
ENCODING 200
SWIDTH 1000 0
DWIDTH 5 0
BBX 4 11 0 0
BITMAP
40
20
00
F0
80
80
F0
80
80
80
F0
ENDCHAR
STARTCHAR Eacute
ENCODING 201
SWIDTH 1000 0
DWIDTH 5 0
BBX 4 11 0 0
BITMAP
20
40
00
F0
80
80
F0
80
80
80
F0
ENDCHAR
STARTCHAR Ecircumflex
ENCODING 202
SWIDTH 1000 0
DWIDTH 5 0
BBX 4 11 0 0
BITMAP
20
50
00
F0
80
80
F0
80
80
80
F0
ENDCHAR
STARTCHAR Edieresis
ENCODING 203
SWIDTH 1000 0
DWIDTH 5 0
BBX 4 10 0 0
BITMAP
50
00
F0
80
80
F0
80
80
80
F0
ENDCHAR
STARTCHAR Igrave
ENCODING 204
SWIDTH 250 0
DWIDTH 4 0
BBX 2 11 0 0
BITMAP
80
40
00
40
40
40
40
40
40
40
40
ENDCHAR
STARTCHAR Iacute
ENCODING 205
SWIDTH 250 0
DWIDTH 4 0
BBX 2 11 1 0
BITMAP
40
80
00
80
80
80
80
80
80
80
80
ENDCHAR
STARTCHAR Icircumflex
ENCODING 206
SWIDTH 250 0
DWIDTH 4 0
BBX 3 11 0 0
BITMAP
40
A0
00
40
40
40
40
40
40
40
40
ENDCHAR
STARTCHAR Idieresis
ENCODING 207
SWIDTH 250 0
DWIDTH 4 0
BBX 3 10 0 0
BITMAP
A0
00
40
40
40
40
40
40
40
40
ENDCHAR
STARTCHAR Ntilde
ENCODING 209
SWIDTH 1000 0
DWIDTH 6 0
BBX 5 11 0 0
BITMAP
28
50
00
88
C8
C8
A8
A8
98
98
88
ENDCHAR
STARTCHAR Ograve
ENCODING 210
SWIDTH 1000 0
DWIDTH 6 0
BBX 5 11 0 0
BITMAP
40
20
00
70
88
88
88
88
88
88
70
ENDCHAR
STARTCHAR Oacute
ENCODING 211
SWIDTH 1000 0
DWIDTH 6 0
BBX 5 11 0 0
BITMAP
10
20
00
70
88
88
88
88
88
88
70
ENDCHAR
STARTCHAR Ocircumflex
ENCODING 212
SWIDTH 1000 0
DWIDTH 6 0
BBX 5 11 0 0
BITMAP
20
50
00
70
88
88
88
88
88
88
70
ENDCHAR
STARTCHAR Otilde
ENCODING 213
SWIDTH 1000 0
DWIDTH 6 0
BBX 5 11 0 0
BITMAP
28
50
00
70
88
88
88
88
88
88
70
ENDCHAR
STARTCHAR Odieresis
ENCODING 214
SWIDTH 1000 0
DWIDTH 6 0
BBX 5 11 0 0
BITMAP
50
00
00
70
88
88
88
88
88
88
70
ENDCHAR
STARTCHAR multiply
ENCODING 215
SWIDTH 375 0
DWIDTH 6 0
BBX 5 5 0 2
BITMAP
88
50
20
50
88
ENDCHAR
STARTCHAR Ugrave
ENCODING 217
SWIDTH 1000 0
DWIDTH 6 0
BBX 5 11 0 0
BITMAP
40
20
00
88
88
88
88
88
88
88
70
ENDCHAR
STARTCHAR Uacute
ENCODING 218
SWIDTH 1000 0
DWIDTH 6 0
BBX 5 11 0 0
BITMAP
10
20
00
88
88
88
88
88
88
88
70
ENDCHAR
STARTCHAR Ucircumflex
ENCODING 219
SWIDTH 1000 0
DWIDTH 6 0
BBX 5 11 0 0
BITMAP
20
50
00
88
88
88
88
88
88
88
70
ENDCHAR
STARTCHAR Udieresis
ENCODING 220
SWIDTH 1000 0
DWIDTH 6 0
BBX 5 10 0 0
BITMAP
50
00
88
88
88
88
88
88
88
70
ENDCHAR
STARTCHAR Thorn
ENCODING 222
SWIDTH 375 0
DWIDTH 6 0
BBX 5 9 0 0
BITMAP
80
80
F0
88
88
88
F0
80
80
ENDCHAR
STARTCHAR germandbls
ENCODING 223
SWIDTH 375 0
DWIDTH 6 0
BBX 5 9 0 0
BITMAP
70
88
88
B0
88
88
88
B0
80
ENDCHAR
STARTCHAR agrave
ENCODING 224
SWIDTH 1000 0
DWIDTH 6 0
BBX 5 9 0 0
BITMAP
20
10
00
F0
08
78
88
88
78
ENDCHAR
STARTCHAR aacute
ENCODING 225
SWIDTH 1000 0
DWIDTH 6 0
BBX 5 9 0 0
BITMAP
10
20
00
F0
08
78
88
88
78
ENDCHAR
STARTCHAR acircumflex
ENCODING 226
SWIDTH 1000 0
DWIDTH 6 0
BBX 5 9 0 0
BITMAP
20
50
00
F0
08
78
88
88
78
ENDCHAR
STARTCHAR atilde
ENCODING 227
SWIDTH 1000 0
DWIDTH 6 0
BBX 5 9 0 0
BITMAP
28
50
00
F0
08
78
88
88
78
ENDCHAR
STARTCHAR adieresis
ENCODING 228
SWIDTH 1000 0
DWIDTH 6 0
BBX 5 8 0 0
BITMAP
50
00
F0
08
78
88
88
78
ENDCHAR
STARTCHAR aring
ENCODING 229
SWIDTH 1000 0
DWIDTH 6 0
BBX 5 10 0 0
BITMAP
20
50
20
00
F0
08
78
88
88
78
ENDCHAR
STARTCHAR ccedilla
ENCODING 231
SWIDTH 312 0
DWIDTH 5 0
BBX 4 7 0 -1
BITMAP
70
80
80
80
70
20
40
ENDCHAR
STARTCHAR egrave
ENCODING 232
SWIDTH 1000 0
DWIDTH 6 0
BBX 5 9 0 0
BITMAP
40
20
00
70
88
F8
80
80
78
ENDCHAR
STARTCHAR eacute
ENCODING 233
SWIDTH 1000 0
DWIDTH 6 0
BBX 5 9 0 0
BITMAP
10
20
00
70
88
F8
80
80
78
ENDCHAR
STARTCHAR ecircumflex
ENCODING 234
SWIDTH 1000 0
DWIDTH 6 0
BBX 5 9 0 0
BITMAP
20
50
00
70
88
F8
80
80
78
ENDCHAR
STARTCHAR edieresis
ENCODING 235
SWIDTH 1000 0
DWIDTH 6 0
BBX 5 8 0 0
BITMAP
50
00
70
88
F8
80
80
78
ENDCHAR
STARTCHAR igrave
ENCODING 236
SWIDTH 250 0
DWIDTH 4 0
BBX 2 9 0 0
BITMAP
80
40
00
40
40
40
40
40
40
ENDCHAR
STARTCHAR iacute
ENCODING 237
SWIDTH 250 0
DWIDTH 4 0
BBX 2 9 1 0
BITMAP
40
80
00
80
80
80
80
80
80
ENDCHAR
STARTCHAR icircumflex
ENCODING 238
SWIDTH 250 0
DWIDTH 4 0
BBX 3 9 0 0
BITMAP
40
A0
00
40
40
40
40
40
40
ENDCHAR
STARTCHAR idieresis
ENCODING 239
SWIDTH 250 0
DWIDTH 4 0
BBX 3 8 0 0
BITMAP
A0
00
40
40
40
40
40
40
ENDCHAR
STARTCHAR ntilde
ENCODING 241
SWIDTH 1000 0
DWIDTH 6 0
BBX 5 9 0 0
BITMAP
28
50
00
F0
88
88
88
88
88
ENDCHAR
STARTCHAR ograve
ENCODING 242
SWIDTH 1000 0
DWIDTH 6 0
BBX 5 9 0 0
BITMAP
40
20
00
70
88
88
88
88
70
ENDCHAR
STARTCHAR oacute
ENCODING 243
SWIDTH 1000 0
DWIDTH 6 0
BBX 5 9 0 0
BITMAP
10
20
00
70
88
88
88
88
70
ENDCHAR
STARTCHAR ocircumflex
ENCODING 244
SWIDTH 1000 0
DWIDTH 6 0
BBX 5 9 0 0
BITMAP
20
50
00
70
88
88
88
88
70
ENDCHAR
STARTCHAR otilde
ENCODING 245
SWIDTH 1000 0
DWIDTH 6 0
BBX 5 9 0 0
BITMAP
28
50
00
70
88
88
88
88
70
ENDCHAR
STARTCHAR odieresis
ENCODING 246
SWIDTH 1000 0
DWIDTH 6 0
BBX 5 8 0 0
BITMAP
50
00
70
88
88
88
88
70
ENDCHAR
STARTCHAR divide
ENCODING 247
SWIDTH 375 0
DWIDTH 6 0
BBX 5 5 0 2
BITMAP
20
00
F8
00
20
ENDCHAR
STARTCHAR ugrave
ENCODING 249
SWIDTH 1000 0
DWIDTH 6 0
BBX 5 8 0 0
BITMAP
40
20
88
88
88
88
88
78
ENDCHAR
STARTCHAR uacute
ENCODING 250
SWIDTH 1000 0
DWIDTH 6 0
BBX 5 8 0 0
BITMAP
10
20
88
88
88
88
88
78
ENDCHAR
STARTCHAR ucircumflex
ENCODING 251
SWIDTH 1000 0
DWIDTH 6 0
BBX 5 9 0 0
BITMAP
20
50
00
88
88
88
88
88
78
ENDCHAR
STARTCHAR udieresis
ENCODING 252
SWIDTH 1000 0
DWIDTH 6 0
BBX 5 8 0 0
BITMAP
50
00
88
88
88
88
88
78
ENDCHAR
STARTCHAR yacute
ENCODING 253
SWIDTH 1000 0
DWIDTH 6 0
BBX 5 10 0 -1
BITMAP
10
20
00
88
88
50
50
20
20
C0
ENDCHAR
STARTCHAR thorn
ENCODING 254
SWIDTH 375 0
DWIDTH 6 0
BBX 5 9 0 -1
BITMAP
80
80
F0
88
88
88
F0
80
80
ENDCHAR
STARTCHAR ydieresis
ENCODING 255
SWIDTH 1000 0
DWIDTH 6 0
BBX 5 9 0 -1
BITMAP
50
00
88
88
50
50
20
20
C0
ENDCHAR
STARTCHAR OE
ENCODING 338
SWIDTH 500 0
DWIDTH 8 0
BBX 7 9 0 0
BITMAP
6E
90
90
90
9E
90
90
90
6E
ENDCHAR
STARTCHAR oe
ENCODING 339
SWIDTH 500 0
DWIDTH 8 0
BBX 7 6 0 0
BITMAP
6C
92
9E
90
90
6E
ENDCHAR
STARTCHAR uni05C8
ENCODING 1480
SWIDTH 625 0
DWIDTH 10 0
BBX 9 9 0 0
BITMAP
3E00
7F00
F780
EB80
EB80
C180
DD80
7F00
3E00
ENDCHAR
STARTCHAR uni05C9
ENCODING 1481
SWIDTH 1000 0
DWIDTH 10 0
BBX 9 9 0 0
BITMAP
3E00
7F00
C380
DD80
C380
DD80
C380
7F00
3E00
ENDCHAR
STARTCHAR uni05CA
ENCODING 1482
SWIDTH 1000 0
DWIDTH 10 0
BBX 9 9 0 0
BITMAP
3E00
7F00
DD80
EB80
F780
EB80
DD80
7F00
3E00
ENDCHAR
STARTCHAR uni05CB
ENCODING 1483
SWIDTH 1000 0
DWIDTH 10 0
BBX 9 9 0 0
BITMAP
3E00
7F00
DD80
EB80
F780
F780
F780
7F00
3E00
ENDCHAR
STARTCHAR uni05CC
ENCODING 1484
SWIDTH 625 0
DWIDTH 10 0
BBX 9 9 0 0
BITMAP
1F80
3F80
6F80
EF80
EF80
EF80
E180
FF80
FF80
ENDCHAR
STARTCHAR uni05CD
ENCODING 1485
SWIDTH 625 0
DWIDTH 10 0
BBX 9 9 0 0
BITMAP
FC00
FE00
C300
DD80
C380
DB80
DD80
FF80
FF80
ENDCHAR
STARTCHAR uni05CE
ENCODING 1486
SWIDTH 625 0
DWIDTH 10 0
BBX 7 5 1 2
BITMAP
6E
84
44
24
C4
ENDCHAR
STARTCHAR uni05CF
ENCODING 1487
SWIDTH 875 0
DWIDTH 14 0
BBX 11 5 1 2
BITMAP
6E80
8880
4C80
2880
CEE0
ENDCHAR
STARTCHAR quotedblleft
ENCODING 8220
SWIDTH 312 0
DWIDTH 5 0
BBX 4 2 0 7
BITMAP
50
A0
ENDCHAR
STARTCHAR quotedblright
ENCODING 8221
SWIDTH 312 0
DWIDTH 5 0
BBX 4 2 0 7
BITMAP
50
A0
ENDCHAR
STARTCHAR bullet
ENCODING 8226
SWIDTH 312 0
DWIDTH 5 0
BBX 4 4 0 2
BITMAP
60
F0
F0
60
ENDCHAR
STARTCHAR ellipsis
ENCODING 8230
SWIDTH 500 0
DWIDTH 8 0
BBX 5 1 0 0
BITMAP
A8
ENDCHAR
STARTCHAR Euro
ENCODING 8364
SWIDTH 437 0
DWIDTH 7 0
BBX 6 9 0 0
BITMAP
18
24
40
F0
40
F0
40
24
18
ENDCHAR
STARTCHAR trademark
ENCODING 8482
SWIDTH 625 0
DWIDTH 10 0
BBX 9 4 0 5
BITMAP
E880
4D80
4A80
4880
ENDCHAR
STARTCHAR arrowleft
ENCODING 8592
SWIDTH 625 0
DWIDTH 10 0
BBX 9 5 0 2
BITMAP
2000
4000
FF80
4000
2000
ENDCHAR
STARTCHAR arrowup
ENCODING 8593
SWIDTH 375 0
DWIDTH 6 0
BBX 5 9 0 0
BITMAP
20
70
A8
20
20
20
20
20
20
ENDCHAR
STARTCHAR arrowright
ENCODING 8594
SWIDTH 1000 0
DWIDTH 10 0
BBX 9 5 0 2
BITMAP
0200
0100
FF80
0100
0200
ENDCHAR
STARTCHAR arrowdown
ENCODING 8595
SWIDTH 1000 0
DWIDTH 6 0
BBX 5 9 0 0
BITMAP
20
20
20
20
20
20
A8
70
20
ENDCHAR
STARTCHAR uni3000
ENCODING 12288
SWIDTH 625 0
DWIDTH 10 0
BBX 1 1 0 0
BITMAP
00
ENDCHAR
STARTCHAR uni3001
ENCODING 12289
SWIDTH 625 0
DWIDTH 10 0
BBX 2 3 0 0
BITMAP
80
40
40
ENDCHAR
STARTCHAR uni3002
ENCODING 12290
SWIDTH 625 0
DWIDTH 10 0
BBX 4 4 0 0
BITMAP
60
90
90
60
ENDCHAR
STARTCHAR uni3041
ENCODING 12353
SWIDTH 625 0
DWIDTH 10 0
BBX 8 8 0 0
BITMAP
10
7C
10
3E
55
99
91
66
ENDCHAR
STARTCHAR uni3042
ENCODING 12354
SWIDTH 625 0
DWIDTH 10 0
BBX 9 9 0 0
BITMAP
1000
7F00
1000
3E00
5500
9480
9880
9080
6300
ENDCHAR
STARTCHAR uni3043
ENCODING 12355
SWIDTH 625 0
DWIDTH 10 0
BBX 7 7 1 0
BITMAP
84
84
82
82
A2
A2
40
ENDCHAR
STARTCHAR uni3044
ENCODING 12356
SWIDTH 625 0
DWIDTH 10 0
BBX 9 8 0 0
BITMAP
8200
8100
8100
8080
8080
9080
5080
6000
ENDCHAR
STARTCHAR uni3045
ENCODING 12357
SWIDTH 1000 0
DWIDTH 10 0
BBX 7 8 1 0
BITMAP
78
00
7C
82
02
02
0C
70
ENDCHAR
STARTCHAR uni3046
ENCODING 12358
SWIDTH 625 0
DWIDTH 10 0
BBX 8 9 0 0
BITMAP
3C
00
3E
C1
01
01
01
06
38
ENDCHAR
STARTCHAR uni3047
ENCODING 12359
SWIDTH 1000 0
DWIDTH 10 0
BBX 7 8 1 0
BITMAP
78
00
FC
08
10
28
48
86
ENDCHAR
STARTCHAR uni3048
ENCODING 12360
SWIDTH 625 0
DWIDTH 10 0
BBX 9 9 0 0
BITMAP
3C00
0000
FE00
0400
0800
1800
2400
4400
8380
ENDCHAR
STARTCHAR uni3049
ENCODING 12361
SWIDTH 1000 0
DWIDTH 10 0
BBX 9 8 0 0
BITMAP
1000
7D00
1080
3E00
5100
9100
9100
6600
ENDCHAR
STARTCHAR uni304A
ENCODING 12362
SWIDTH 625 0
DWIDTH 10 0
BBX 9 9 0 0
BITMAP
1200
FD00
1080
3E00
5100
9080
9080
9080
6300
ENDCHAR
STARTCHAR uni304B
ENCODING 12363
SWIDTH 625 0
DWIDTH 10 0
BBX 9 9 0 0
BITMAP
2000
2200
F900
2480
2480
2400
4400
4400
9800
ENDCHAR
STARTCHAR uni304C
ENCODING 12364
SWIDTH 1000 0
DWIDTH 10 0
BBX 9 9 0 0
BITMAP
2180
2200
F900
2480
2480
2400
4400
4400
9800
ENDCHAR
STARTCHAR uni304D
ENCODING 12365
SWIDTH 625 0
DWIDTH 10 0
BBX 9 9 0 0
BITMAP
0800
7F00
0400
FF80
0200
3F00
4100
4000
3E00
ENDCHAR
STARTCHAR uni304E
ENCODING 12366
SWIDTH 1000 0
DWIDTH 10 0
BBX 9 9 0 0
BITMAP
0A80
7E80
0400
FF80
0200
3F00
4100
4000
3E00
ENDCHAR
STARTCHAR uni304F
ENCODING 12367
SWIDTH 625 0
DWIDTH 10 0
BBX 7 9 0 0
BITMAP
02
04
18
60
80
60
18
04
02
ENDCHAR
STARTCHAR uni3050
ENCODING 12368
SWIDTH 1000 0
DWIDTH 10 0
BBX 9 9 0 0
BITMAP
0200
0400
1A80
6280
8000
6000
1800
0400
0200
ENDCHAR
STARTCHAR uni3051
ENCODING 12369
SWIDTH 625 0
DWIDTH 10 0
BBX 9 9 0 0
BITMAP
8200
8200
BF80
8200
8200
8200
8200
8400
1800
ENDCHAR
STARTCHAR uni3052
ENCODING 12370
SWIDTH 1000 0
DWIDTH 10 0
BBX 9 9 0 0
BITMAP
8280
8280
BF00
8200
8200
8200
8200
8400
1800
ENDCHAR
STARTCHAR uni3053
ENCODING 12371
SWIDTH 625 0
DWIDTH 10 0
BBX 8 8 0 0
BITMAP
7E
00
00
00
40
80
80
7F
ENDCHAR
STARTCHAR uni3054
ENCODING 12372
SWIDTH 1000 0
DWIDTH 10 0
BBX 9 9 0 0
BITMAP
0280
7A80
0000
0000
0000
4000
8000
8000
7F00
ENDCHAR
STARTCHAR uni3055
ENCODING 12373
SWIDTH 625 0
DWIDTH 10 0
BBX 8 9 0 0
BITMAP
08
FF
04
04
7E
82
80
80
7E
ENDCHAR
STARTCHAR uni3056
ENCODING 12374
SWIDTH 1000 0
DWIDTH 10 0
BBX 9 9 0 0
BITMAP
0A80
FE80
0400
0400
7E00
8200
8000
8000
7E00
ENDCHAR
STARTCHAR uni3057
ENCODING 12375
SWIDTH 625 0
DWIDTH 10 0
BBX 7 9 1 0
BITMAP
80
80
80
80
80
82
82
84
78
ENDCHAR
STARTCHAR uni3058
ENCODING 12376
SWIDTH 1000 0
DWIDTH 10 0
BBX 7 9 1 0
BITMAP
80
8A
8A
80
80
82
82
84
78
ENDCHAR
STARTCHAR uni3059
ENCODING 12377
SWIDTH 625 0
DWIDTH 10 0
BBX 9 9 0 0
BITMAP
0400
FF80
0400
3C00
4400
4400
3C00
0400
3800
ENDCHAR
STARTCHAR uni305A
ENCODING 12378
SWIDTH 1000 0
DWIDTH 10 0
BBX 9 9 0 0
BITMAP
0680
FF80
0400
3C00
4400
4400
3C00
0400
3800
ENDCHAR
STARTCHAR uni305B
ENCODING 12379
SWIDTH 625 0
DWIDTH 10 0
BBX 9 9 0 0
BITMAP
4200
4200
FF80
4200
4200
4C00
4000
4000
3F00
ENDCHAR
STARTCHAR uni305C
ENCODING 12380
SWIDTH 1000 0
DWIDTH 10 0
BBX 9 9 0 0
BITMAP
4280
4280
FF80
4200
4200
4C00
4000
4000
3F00
ENDCHAR
STARTCHAR uni305D
ENCODING 12381
SWIDTH 625 0
DWIDTH 10 0
BBX 9 9 0 0
BITMAP
7E00
0800
1000
FF80
0800
1000
1000
1000
0E00
ENDCHAR
STARTCHAR uni305E
ENCODING 12382
SWIDTH 1000 0
DWIDTH 10 0
BBX 9 9 0 0
BITMAP
7E80
0A80
1000
FF80
0800
1000
1000
1000
0E00
ENDCHAR
STARTCHAR uni305F
ENCODING 12383
SWIDTH 625 0
DWIDTH 10 0
BBX 8 9 0 0
BITMAP
20
FE
20
2F
40
40
48
90
8F
ENDCHAR
STARTCHAR uni3060
ENCODING 12384
SWIDTH 1000 0
DWIDTH 10 0
BBX 9 9 0 0
BITMAP
2280
FA80
2000
2F00
4000
4000
4800
9000
8F00
ENDCHAR
STARTCHAR uni3061
ENCODING 12385
SWIDTH 625 0
DWIDTH 10 0
BBX 8 9 0 0
BITMAP
10
FF
20
20
7E
41
01
01
3E
ENDCHAR
STARTCHAR uni3062
ENCODING 12386
SWIDTH 1000 0
DWIDTH 10 0
BBX 9 9 0 0
BITMAP
1280
FE80
2000
2000
7E00
4100
0100
0100
3E00
ENDCHAR
STARTCHAR uni3063
ENCODING 12387
SWIDTH 1000 0
DWIDTH 10 0
BBX 8 6 0 1
BITMAP
3E
C1
01
01
02
3C
ENDCHAR
STARTCHAR uni3064
ENCODING 12388
SWIDTH 625 0
DWIDTH 10 0
BBX 9 8 0 0
BITMAP
3E00
C100
0080
0080
0080
0080
0300
3C00
ENDCHAR
STARTCHAR uni3065
ENCODING 12389
SWIDTH 1000 0
DWIDTH 10 0
BBX 9 9 0 0
BITMAP
0280
3E80
C100
0080
0080
0080
0080
0300
3C00
ENDCHAR
STARTCHAR uni3066
ENCODING 12390
SWIDTH 625 0
DWIDTH 10 0
BBX 9 8 0 0
BITMAP
FF80
0400
0800
1000
1000
1000
0800
0700
ENDCHAR
STARTCHAR uni3067
ENCODING 12391
SWIDTH 1000 0
DWIDTH 10 0
BBX 9 8 0 0
BITMAP
FF00
0800
1280
2280
2000
2000
1000
0E00
ENDCHAR
STARTCHAR uni3068
ENCODING 12392
SWIDTH 625 0
DWIDTH 10 0
BBX 8 9 0 0
BITMAP
40
43
2C
30
40
80
80
40
3F
ENDCHAR
STARTCHAR uni3069
ENCODING 12393
SWIDTH 1000 0
DWIDTH 10 0
BBX 9 9 0 0
BITMAP
4280
4280
2C00
3000
4000
8000
8000
4000
3F00
ENDCHAR
STARTCHAR uni306A
ENCODING 12394
SWIDTH 625 0
DWIDTH 10 0
BBX 9 9 0 0
BITMAP
2000
F700
2080
4200
4200
4E00
9300
9280
0C00
ENDCHAR
STARTCHAR uni306B
ENCODING 12395
SWIDTH 625 0
DWIDTH 10 0
BBX 9 9 0 0
BITMAP
8000
9F80
8000
8000
8000
8800
9000
9000
8F80
ENDCHAR
STARTCHAR uni306C
ENCODING 12396
SWIDTH 625 0
DWIDTH 10 0
BBX 9 9 0 0
BITMAP
2400
3E00
6500
A880
9880
9080
9680
A900
4680
ENDCHAR
STARTCHAR uni306D
ENCODING 12397
SWIDTH 625 0
DWIDTH 10 0
BBX 9 9 0 0
BITMAP
2000
EE00
3100
2080
6080
A080
A680
2900
2680
ENDCHAR
STARTCHAR uni306E
ENCODING 12398
SWIDTH 625 0
DWIDTH 10 0
BBX 9 8 0 0
BITMAP
3E00
4900
8880
8880
8880
9080
9100
6600
ENDCHAR
STARTCHAR uni306F
ENCODING 12399
SWIDTH 625 0
DWIDTH 10 0
BBX 9 9 0 0
BITMAP
8200
8200
9F80
8200
8200
8E00
9300
9280
8C00
ENDCHAR
STARTCHAR uni3070
ENCODING 12400
SWIDTH 1000 0
DWIDTH 10 0
BBX 9 9 0 0
BITMAP
8280
8280
9F80
8200
8200
8E00
9300
9280
8C00
ENDCHAR
STARTCHAR uni3071
ENCODING 12401
SWIDTH 1000 0
DWIDTH 10 0
BBX 9 9 0 0
BITMAP
8500
8680
BD00
8400
8400
9C00
A600
A500
9800
ENDCHAR
STARTCHAR uni3072
ENCODING 12402
SWIDTH 625 0
DWIDTH 10 0
BBX 9 9 0 0
BITMAP
F400
2400
4200
8380
8200
8200
8200
4400
3800
ENDCHAR
STARTCHAR uni3073
ENCODING 12403
SWIDTH 1000 0
DWIDTH 10 0
BBX 9 9 0 0
BITMAP
F280
2280
4400
8300
8280
8200
8200
4400
3800
ENDCHAR
STARTCHAR uni3074
ENCODING 12404
SWIDTH 1000 0
DWIDTH 10 0
BBX 9 9 0 0
BITMAP
F100
2280
4500
8300
8280
8200
8200
4400
3800
ENDCHAR
STARTCHAR uni3075
ENCODING 12405
SWIDTH 625 0
DWIDTH 10 0
BBX 9 9 0 0
BITMAP
3C00
0800
1000
1000
4900
4500
8480
8480
3800
ENDCHAR
STARTCHAR uni3076
ENCODING 12406
SWIDTH 1000 0
DWIDTH 10 0
BBX 9 9 0 0
BITMAP
3C00
0A80
1280
1000
4900
4500
8480
8480
3800
ENDCHAR
STARTCHAR uni3077
ENCODING 12407
SWIDTH 1000 0
DWIDTH 10 0
BBX 9 9 0 0
BITMAP
3D00
0A80
1100
1000
4900
4500
8480
8480
3800
ENDCHAR
STARTCHAR uni3078
ENCODING 12408
SWIDTH 625 0
DWIDTH 10 0
BBX 9 7 0 1
BITMAP
1000
2800
4400
4400
8200
8100
0080
ENDCHAR
STARTCHAR uni3079
ENCODING 12409
SWIDTH 1000 0
DWIDTH 10 0
BBX 9 8 0 1
BITMAP
0280
1280
2800
4400
4400
8200
8100
0080
ENDCHAR
STARTCHAR uni307A
ENCODING 12410
SWIDTH 1000 0
DWIDTH 10 0
BBX 9 8 0 1
BITMAP
0100
1280
2900
4400
4400
8200
8100
0080
ENDCHAR
STARTCHAR uni307B
ENCODING 12411
SWIDTH 625 0
DWIDTH 10 0
BBX 9 9 0 0
BITMAP
9F80
8200
9F80
8200
8200
8E00
9300
9280
8C00
ENDCHAR
STARTCHAR uni307C
ENCODING 12412
SWIDTH 1000 0
DWIDTH 10 0
BBX 9 9 0 0
BITMAP
BE80
8480
BF00
8400
8400
9C00
A600
A500
9800
ENDCHAR
STARTCHAR uni307D
ENCODING 12413
SWIDTH 1000 0
DWIDTH 10 0
BBX 9 9 0 0
BITMAP
BD00
8680
BD00
8400
8400
9C00
A600
A500
9800
ENDCHAR
STARTCHAR uni307E
ENCODING 12414
SWIDTH 625 0
DWIDTH 10 0
BBX 9 9 0 0
BITMAP
0400
7F00
0400
FF80
0400
3C00
4600
4500
3800
ENDCHAR
STARTCHAR uni307F
ENCODING 12415
SWIDTH 625 0
DWIDTH 10 0
BBX 9 9 0 0
BITMAP
7800
0800
0900
3D00
4B00
9180
9100
6200
0400
ENDCHAR
STARTCHAR uni3080
ENCODING 12416
SWIDTH 625 0
DWIDTH 10 0
BBX 9 9 0 0
BITMAP
2000
2100
F880
2000
6000
A100
A100
6100
3E00
ENDCHAR
STARTCHAR uni3081
ENCODING 12417
SWIDTH 625 0
DWIDTH 10 0
BBX 9 9 0 0
BITMAP
2400
3E00
6500
A480
A880
9880
9080
6100
0600
ENDCHAR
STARTCHAR uni3082
ENCODING 12418
SWIDTH 625 0
DWIDTH 10 0
BBX 8 9 0 0
BITMAP
20
FC
20
20
FC
21
21
21
1E
ENDCHAR
STARTCHAR uni3083
ENCODING 12419
SWIDTH 1000 0
DWIDTH 16 0
BBX 8 8 0 0
BITMAP
48
5E
E9
21
21
16
10
10
ENDCHAR
STARTCHAR uni3084
ENCODING 12420
SWIDTH 1000 0
DWIDTH 16 0
BBX 9 9 0 0
BITMAP
4800
4B00
3480
E480
2080
2700
1000
1000
1000
ENDCHAR
STARTCHAR uni3085
ENCODING 12421
SWIDTH 1000 0
DWIDTH 10 0
BBX 8 8 0 0
BITMAP
88
9E
A9
C9
89
BE
08
30
ENDCHAR
STARTCHAR uni3086
ENCODING 12422
SWIDTH 625 0
DWIDTH 10 0
BBX 9 9 0 0
BITMAP
0400
9F00
A480
C480
A480
A480
9F00
0400
1800
ENDCHAR
STARTCHAR uni3087
ENCODING 12423
SWIDTH 1000 0
DWIDTH 10 0
BBX 8 8 0 0
BITMAP
08
08
0F
08
78
8C
8A
71
ENDCHAR
STARTCHAR uni3088
ENCODING 12424
SWIDTH 625 0
DWIDTH 10 0
BBX 8 9 0 0
BITMAP
08
08
0F
08
08
78
8C
8A
71
ENDCHAR
STARTCHAR uni3089
ENCODING 12425
SWIDTH 625 0
DWIDTH 10 0
BBX 8 9 0 0
BITMAP
18
46
40
BC
C2
81
01
02
3C
ENDCHAR
STARTCHAR uni308A
ENCODING 12426
SWIDTH 625 0
DWIDTH 10 0
BBX 7 9 1 0
BITMAP
98
A4
C2
82
82
82
02
04
38
ENDCHAR
STARTCHAR uni308B
ENCODING 12427
SWIDTH 625 0
DWIDTH 10 0
BBX 9 9 0 0
BITMAP
7F00
0400
1800
3E00
4100
8080
1880
2500
1E00
ENDCHAR
STARTCHAR uni308C
ENCODING 12428
SWIDTH 625 0
DWIDTH 10 0
BBX 9 9 0 0
BITMAP
2000
2C00
F200
2200
2200
6200
A280
2300
2000
ENDCHAR
STARTCHAR uni308D
ENCODING 12429
SWIDTH 1000 0
DWIDTH 10 0
BBX 9 9 0 0
BITMAP
7E00
0800
1000
3E00
4100
8080
0080
0100
3E00
ENDCHAR
STARTCHAR uni308E
ENCODING 12430
SWIDTH 1000 0
DWIDTH 10 0
BBX 8 8 0 0
BITMAP
20
2E
F1
21
61
A1
22
24
ENDCHAR
STARTCHAR uni308F
ENCODING 12431
SWIDTH 625 0
DWIDTH 10 0
BBX 9 9 0 0
BITMAP
2000
2E00
F100
2080
6080
A080
A080
2100
2600
ENDCHAR
STARTCHAR uni3092
ENCODING 12434
SWIDTH 625 0
DWIDTH 10 0
BBX 9 9 0 0
BITMAP
0800
7F00
1000
3D80
4600
9A00
2200
2000
1F80
ENDCHAR
STARTCHAR uni3093
ENCODING 12435
SWIDTH 625 0
DWIDTH 10 0
BBX 9 9 0 0
BITMAP
1000
1000
2000
2000
5000
6880
4880
8900
8600
ENDCHAR
STARTCHAR uni30A1
ENCODING 12449
SWIDTH 625 0
DWIDTH 10 0
BBX 8 8 0 0
BITMAP
FF
01
11
12
14
10
20
40
ENDCHAR
STARTCHAR uni30A2
ENCODING 12450
SWIDTH 625 0
DWIDTH 10 0
BBX 8 9 0 0
BITMAP
FF
01
11
11
12
14
10
20
40
ENDCHAR
STARTCHAR uni30A3
ENCODING 12451
SWIDTH 625 0
DWIDTH 10 0
BBX 7 8 0 0
BITMAP
02
04
18
E8
08
08
08
08
ENDCHAR
STARTCHAR uni30A4
ENCODING 12452
SWIDTH 625 0
DWIDTH 10 0
BBX 7 9 0 0
BITMAP
02
04
08
38
C8
08
08
08
08
ENDCHAR
STARTCHAR uni30A5
ENCODING 12453
SWIDTH 625 0
DWIDTH 10 0
BBX 7 8 1 0
BITMAP
10
FE
82
82
02
04
08
30
ENDCHAR
STARTCHAR uni30A6
ENCODING 12454
SWIDTH 625 0
DWIDTH 10 0
BBX 8 9 0 0
BITMAP
10
FF
81
81
81
01
02
04
18
ENDCHAR
STARTCHAR uni30A7
ENCODING 12455
SWIDTH 625 0
DWIDTH 10 0
BBX 7 6 1 1
BITMAP
7C
10
10
10
10
FE
ENDCHAR
STARTCHAR uni30A8
ENCODING 12456
SWIDTH 625 0
DWIDTH 10 0
BBX 9 7 0 1
BITMAP
7F00
0800
0800
0800
0800
0800
FF80
ENDCHAR
STARTCHAR uni30A9
ENCODING 12457
SWIDTH 625 0
DWIDTH 10 0
BBX 7 8 0 0
BITMAP
08
08
FE
18
28
48
88
18
ENDCHAR
STARTCHAR uni30AA
ENCODING 12458
SWIDTH 625 0
DWIDTH 10 0
BBX 9 9 0 0
BITMAP
0200
0200
FF80
0A00
1200
2200
4200
8200
0C00
ENDCHAR
STARTCHAR uni30AB
ENCODING 12459
SWIDTH 625 0
DWIDTH 10 0
BBX 9 9 0 0
BITMAP
1000
1000
FF80
1080
1080
2080
2080
4080
8700
ENDCHAR
STARTCHAR uni30AC
ENCODING 12460
SWIDTH 625 0
DWIDTH 10 0
BBX 9 9 0 0
BITMAP
1280
1280
FF00
1100
1100
2100
2100
4100
8600
ENDCHAR
STARTCHAR uni30AD
ENCODING 12461
SWIDTH 625 0
DWIDTH 10 0
BBX 8 9 0 0
BITMAP
10
10
FF
08
08
FF
04
04
04
ENDCHAR
STARTCHAR uni30AE
ENCODING 12462
SWIDTH 625 0
DWIDTH 10 0
BBX 9 9 0 0
BITMAP
1280
1280
FE00
0800
0800
FF00
0400
0400
0400
ENDCHAR
STARTCHAR uni30AF
ENCODING 12463
SWIDTH 625 0
DWIDTH 10 0
BBX 8 9 0 0
BITMAP
20
3F
21
41
81
02
02
0C
70
ENDCHAR
STARTCHAR uni30B0
ENCODING 12464
SWIDTH 625 0
DWIDTH 10 0
BBX 9 9 0 0
BITMAP
2280
3E80
2100
4100
8100
0200
0200
0C00
7000
ENDCHAR
STARTCHAR uni30B1
ENCODING 12465
SWIDTH 625 0
DWIDTH 10 0
BBX 9 9 0 0
BITMAP
2000
2000
3F80
4200
8200
0200
0400
0800
3000
ENDCHAR
STARTCHAR uni30B2
ENCODING 12466
SWIDTH 625 0
DWIDTH 10 0
BBX 9 9 0 0
BITMAP
2280
2280
3F80
4200
8200
0200
0400
0800
3000
ENDCHAR
STARTCHAR uni30B3
ENCODING 12467
SWIDTH 625 0
DWIDTH 10 0
BBX 8 8 0 0
BITMAP
FF
01
01
01
01
01
01
FF
ENDCHAR
STARTCHAR uni30B4
ENCODING 12468
SWIDTH 625 0
DWIDTH 10 0
BBX 9 9 0 0
BITMAP
0280
FE80
0200
0200
0200
0200
0200
0200
FE00
ENDCHAR
STARTCHAR uni30B5
ENCODING 12469
SWIDTH 625 0
DWIDTH 10 0
BBX 9 9 0 0
BITMAP
2200
2200
FF80
2200
2200
2200
0200
0400
3800
ENDCHAR
STARTCHAR uni30B6
ENCODING 12470
SWIDTH 625 0
DWIDTH 10 0
BBX 9 9 0 0
BITMAP
2280
2280
FF80
2200
2200
2200
0200
0400
3800
ENDCHAR
STARTCHAR uni30B7
ENCODING 12471
SWIDTH 625 0
DWIDTH 10 0
BBX 8 9 0 0
BITMAP
60
10
00
C1
21
02
02
0C
F0
ENDCHAR
STARTCHAR uni30B8
ENCODING 12472
SWIDTH 625 0
DWIDTH 10 0
BBX 9 9 0 0
BITMAP
6280
1280
0000
C080
2080
0100
0200
0C00
7000
ENDCHAR
STARTCHAR uni30B9
ENCODING 12473
SWIDTH 625 0
DWIDTH 10 0
BBX 9 9 0 0
BITMAP
FE00
0200
0200
0200
0400
0C00
1200
2100
C080
ENDCHAR
STARTCHAR uni30BA
ENCODING 12474
SWIDTH 625 0
DWIDTH 10 0
BBX 9 9 0 0
BITMAP
FE80
0280
0200
0400
0400
0C00
1200
2100
C080
ENDCHAR
STARTCHAR uni30BB
ENCODING 12475
SWIDTH 625 0
DWIDTH 10 0
BBX 9 9 0 0
BITMAP
2000
2000
2F80
F080
2100
2200
2000
2000
1F00
ENDCHAR
STARTCHAR uni30BC
ENCODING 12476
SWIDTH 625 0
DWIDTH 10 0
BBX 9 9 0 0
BITMAP
2280
2280
2F80
F080
2100
2200
2000
2000
1F00
ENDCHAR
STARTCHAR uni30BD
ENCODING 12477
SWIDTH 625 0
DWIDTH 10 0
BBX 9 9 0 0
BITMAP
8080
4080
4080
0100
0100
0200
0400
0800
3000
ENDCHAR
STARTCHAR uni30BE
ENCODING 12478
SWIDTH 625 0
DWIDTH 10 0
BBX 9 9 0 0
BITMAP
0280
8280
4100
4100
0200
0200
0400
0800
3000
ENDCHAR
STARTCHAR uni30BF
ENCODING 12479
SWIDTH 625 0
DWIDTH 10 0
BBX 9 9 0 0
BITMAP
2000
3F80
4080
A080
1100
0900
0600
0C00
7000
ENDCHAR
STARTCHAR uni30C0
ENCODING 12480
SWIDTH 625 0
DWIDTH 10 0
BBX 9 9 0 0
BITMAP
2280
3E80
4100
A100
1100
0A00
0600
0C00
7000
ENDCHAR
STARTCHAR uni30C1
ENCODING 12481
SWIDTH 625 0
DWIDTH 10 0
BBX 9 9 0 0
BITMAP
0100
7E00
0800
0800
FF80
0800
0800
1000
6000
ENDCHAR
STARTCHAR uni30C2
ENCODING 12482
SWIDTH 625 0
DWIDTH 10 0
BBX 9 9 0 0
BITMAP
0280
7E80
0800
0800
FF80
0800
0800
1000
6000
ENDCHAR
STARTCHAR uni30C3
ENCODING 12483
SWIDTH 625 0
DWIDTH 10 0
BBX 8 7 0 0
BITMAP
91
49
49
02
02
0C
30
ENDCHAR
STARTCHAR uni30C4
ENCODING 12484
SWIDTH 625 0
DWIDTH 10 0
BBX 9 8 0 0
BITMAP
9080
4880
4880
0100
0100
0200
0C00
3000
ENDCHAR
STARTCHAR uni30C5
ENCODING 12485
SWIDTH 625 0
DWIDTH 10 0
BBX 9 9 0 0
BITMAP
0280
9280
4800
4880
0080
0100
0200
0C00
3000
ENDCHAR
STARTCHAR uni30C6
ENCODING 12486
SWIDTH 625 0
DWIDTH 10 0
BBX 9 9 0 0
BITMAP
7F00
0000
0000
FF80
0400
0400
0400
0800
3000
ENDCHAR
STARTCHAR uni30C7
ENCODING 12487
SWIDTH 625 0
DWIDTH 10 0
BBX 9 9 0 0
BITMAP
7E80
0280
0000
FF80
0400
0400
0400
0800
3000
ENDCHAR
STARTCHAR uni30C8
ENCODING 12488
SWIDTH 625 0
DWIDTH 10 0
BBX 6 9 2 0
BITMAP
80
80
80
E0
98
84
80
80
80
ENDCHAR
STARTCHAR uni30C9
ENCODING 12489
SWIDTH 625 0
DWIDTH 10 0
BBX 7 9 2 0
BITMAP
8A
8A
80
E0
98
84
80
80
80
ENDCHAR
STARTCHAR uni30CA
ENCODING 12490
SWIDTH 625 0
DWIDTH 10 0
BBX 9 9 0 0
BITMAP
0800
0800
FF80
0800
0800
0800
0800
1000
6000
ENDCHAR
STARTCHAR uni30CB
ENCODING 12491
SWIDTH 625 0
DWIDTH 10 0
BBX 8 7 0 1
BITMAP
7E
00
00
00
00
00
FF
ENDCHAR
STARTCHAR uni30CC
ENCODING 12492
SWIDTH 625 0
DWIDTH 10 0
BBX 8 9 0 0
BITMAP
7F
01
01
32
0A
04
0A
31
C0
ENDCHAR
STARTCHAR uni30CD
ENCODING 12493
SWIDTH 625 0
DWIDTH 10 0
BBX 9 9 0 0
BITMAP
0800
7F00
0100
0200
0C00
3A00
C980
0800
0800
ENDCHAR
STARTCHAR uni30CE
ENCODING 12494
SWIDTH 625 0
DWIDTH 10 0
BBX 7 9 0 0
BITMAP
02
02
02
02
04
04
08
30
C0
ENDCHAR
STARTCHAR uni30CF
ENCODING 12495
SWIDTH 625 0
DWIDTH 10 0
BBX 9 9 0 0
BITMAP
2200
2200
2200
2200
4100
4100
4100
8080
8080
ENDCHAR
STARTCHAR uni30D0
ENCODING 12496
SWIDTH 625 0
DWIDTH 10 0
BBX 9 9 0 0
BITMAP
2280
2280
2200
2200
4100
4100
4100
8080
8080
ENDCHAR
STARTCHAR uni30D1
ENCODING 12497
SWIDTH 625 0
DWIDTH 10 0
BBX 9 9 0 0
BITMAP
2300
2280
2300
2200
4100
4100
4100
8080
8080
ENDCHAR
STARTCHAR uni30D2
ENCODING 12498
SWIDTH 625 0
DWIDTH 10 0
BBX 8 9 1 0
BITMAP
80
80
87
F8
80
80
80
80
7F
ENDCHAR
STARTCHAR uni30D3
ENCODING 12499
SWIDTH 625 0
DWIDTH 10 0
BBX 8 9 1 0
BITMAP
85
85
86
F8
80
80
80
80
7F
ENDCHAR
STARTCHAR uni30D4
ENCODING 12500
SWIDTH 625 0
DWIDTH 10 0
BBX 8 9 1 0
BITMAP
82
85
8E
F0
80
80
80
80
7F
ENDCHAR
STARTCHAR uni30D5
ENCODING 12501
SWIDTH 625 0
DWIDTH 10 0
BBX 8 8 0 0
BITMAP
FF
01
01
01
01
02
04
38
ENDCHAR
STARTCHAR uni30D6
ENCODING 12502
SWIDTH 625 0
DWIDTH 10 0
BBX 9 9 0 0
BITMAP
0280
FE80
0100
0100
0100
0100
0200
0400
3800
ENDCHAR
STARTCHAR uni30D7
ENCODING 12503
SWIDTH 625 0
DWIDTH 10 0
BBX 9 9 0 0
BITMAP
0100
FE80
0100
0100
0100
0100
0200
0400
3800
ENDCHAR
STARTCHAR uni30D8
ENCODING 12504
SWIDTH 625 0
DWIDTH 10 0
BBX 9 7 0 1
BITMAP
1000
2800
4400
4400
8200
8100
0080
ENDCHAR
STARTCHAR uni30D9
ENCODING 12505
SWIDTH 625 0
DWIDTH 10 0
BBX 9 8 0 1
BITMAP
0280
1280
2800
4400
4400
8200
8100
0080
ENDCHAR
STARTCHAR uni30DA
ENCODING 12506
SWIDTH 625 0
DWIDTH 10 0
BBX 9 8 0 1
BITMAP
0100
1280
2900
4400
4400
8200
8100
0080
ENDCHAR
STARTCHAR uni30DB
ENCODING 12507
SWIDTH 625 0
DWIDTH 10 0
BBX 9 9 0 0
BITMAP
0800
0800
FF80
0800
4900
4900
8880
8880
0800
ENDCHAR
STARTCHAR uni30DC
ENCODING 12508
SWIDTH 625 0
DWIDTH 10 0
BBX 9 9 0 0
BITMAP
0A80
0A80
FF80
0800
4900
4900
8880
8880
0800
ENDCHAR
STARTCHAR uni30DD
ENCODING 12509
SWIDTH 625 0
DWIDTH 10 0
BBX 9 9 0 0
BITMAP
0900
0A80
FF80
0800
4900
4900
8880
8880
0800
ENDCHAR
STARTCHAR uni30DE
ENCODING 12510
SWIDTH 625 0
DWIDTH 10 0
BBX 9 8 0 0
BITMAP
FF80
0080
0100
0200
6400
1800
0800
0400
ENDCHAR
STARTCHAR uni30DF
ENCODING 12511
SWIDTH 625 0
DWIDTH 10 0
BBX 8 9 0 0
BITMAP
70
0E
01
70
0E
01
F0
0E
01
ENDCHAR
STARTCHAR uni30E0
ENCODING 12512
SWIDTH 625 0
DWIDTH 10 0
BBX 9 9 0 0
BITMAP
1000
1000
1000
2000
2200
2100
4300
FC80
0080
ENDCHAR
STARTCHAR uni30E1
ENCODING 12513
SWIDTH 625 0
DWIDTH 10 0
BBX 8 9 0 0
BITMAP
02
02
22
14
0C
0C
12
21
C0
ENDCHAR
STARTCHAR uni30E2
ENCODING 12514
SWIDTH 625 0
DWIDTH 10 0
BBX 9 9 0 0
BITMAP
7F00
1000
1000
FF80
1000
1000
1000
1000
0F00
ENDCHAR
STARTCHAR uni30E3
ENCODING 12515
SWIDTH 625 0
DWIDTH 10 0
BBX 8 8 0 0
BITMAP
40
2F
F1
21
12
10
08
08
ENDCHAR
STARTCHAR uni30E4
ENCODING 12516
SWIDTH 625 0
DWIDTH 10 0
BBX 9 9 0 0
BITMAP
4000
2780
3880
E080
1100
1200
1000
0800
0800
ENDCHAR
STARTCHAR uni30E5
ENCODING 12517
SWIDTH 625 0
DWIDTH 10 0
BBX 8 7 0 0
BITMAP
7E
02
02
02
04
04
FF
ENDCHAR
STARTCHAR uni30E6
ENCODING 12518
SWIDTH 625 0
DWIDTH 10 0
BBX 9 8 0 0
BITMAP
7F00
0100
0100
0100
0200
0200
0200
FF80
ENDCHAR
STARTCHAR uni30E7
ENCODING 12519
SWIDTH 625 0
DWIDTH 10 0
BBX 6 7 1 0
BITMAP
FC
04
04
FC
04
04
FC
ENDCHAR
STARTCHAR uni30E8
ENCODING 12520
SWIDTH 625 0
DWIDTH 10 0
BBX 7 9 1 0
BITMAP
FE
02
02
02
FE
02
02
02
FE
ENDCHAR
STARTCHAR uni30E9
ENCODING 12521
SWIDTH 625 0
DWIDTH 10 0
BBX 8 9 0 0
BITMAP
7E
00
00
FF
01
02
02
0C
30
ENDCHAR
STARTCHAR uni30EA
ENCODING 12522
SWIDTH 625 0
DWIDTH 10 0
BBX 7 9 1 0
BITMAP
82
82
82
82
82
02
02
04
38
ENDCHAR
STARTCHAR uni30EB
ENCODING 12523
SWIDTH 625 0
DWIDTH 10 0
BBX 9 9 0 0
BITMAP
2400
2400
2400
2400
2480
2480
4480
4500
8600
ENDCHAR
STARTCHAR uni30EC
ENCODING 12524
SWIDTH 625 0
DWIDTH 10 0
BBX 7 9 1 0
BITMAP
80
80
80
80
82
82
84
98
E0
ENDCHAR
STARTCHAR uni30ED
ENCODING 12525
SWIDTH 625 0
DWIDTH 10 0
BBX 8 8 0 1
BITMAP
FF
81
81
81
81
81
81
FF
ENDCHAR
STARTCHAR uni30EE
ENCODING 12526
SWIDTH 625 0
DWIDTH 10 0
BBX 6 7 1 0
BITMAP
FC
84
84
04
04
08
70
ENDCHAR
STARTCHAR uni30EF
ENCODING 12527
SWIDTH 625 0
DWIDTH 10 0
BBX 8 9 0 0
BITMAP
FF
81
81
81
01
01
02
04
38
ENDCHAR
STARTCHAR uni30F2
ENCODING 12530
SWIDTH 625 0
DWIDTH 10 0
BBX 8 9 0 0
BITMAP
FF
01
01
FF
01
01
02
04
38
ENDCHAR
STARTCHAR uni30F3
ENCODING 12531
SWIDTH 625 0
DWIDTH 10 0
BBX 9 8 0 0
BITMAP
C000
2080
0080
0100
0100
0200
0C00
7000
ENDCHAR
STARTCHAR uni30F4
ENCODING 12532
SWIDTH 1000 0
DWIDTH 10 0
BBX 9 9 0 0
BITMAP
1280
FF00
8100
8100
8100
0100
0200
0400
1800
ENDCHAR
STARTCHAR uni30F5
ENCODING 12533
SWIDTH 625 0
DWIDTH 10 0
BBX 7 8 1 0
BITMAP
20
20
FE
22
22
22
42
8C
ENDCHAR
STARTCHAR uni30F6
ENCODING 12534
SWIDTH 625 0
DWIDTH 10 0
BBX 8 8 0 0
BITMAP
20
20
3F
44
84
04
08
30
ENDCHAR
STARTCHAR uni30FC
ENCODING 12540
SWIDTH 1000 0
DWIDTH 10 0
BBX 8 1 0 5
BITMAP
FF
ENDCHAR
ENDFONT
